# xmcd
#
# Track frame offsets: 
#        150
#        24884
#        41106
#        49376
#        57068
#        82549
#        128592
#        149033
#        161643
#        183638
#        233209
#
# Disc length: 3359 seconds
#
# Revision: 2
# Processed by: cddbd v1.5.2PL0 Copyright (c) Steve Scherf et al.
# Submitted via: ExactAudioCopyFreeDBPlugin 1.0
#
DISCID=8e0d1d0b
DTITLE=The Rolling Stones and Muddy Waters - 2012 - Checkerboard Lounge 
DTITLE=Live Chicago 1981 Cd 1
DYEAR=2012
DGENRE=Blues
TTITLE0=Youre Gonna Miss Me When I'm Gone
TTITLE1=Sweet Little Angel
TTITLE2=Flip Flop And Fly
TTITLE3=Introduction
TTITLE4=You Don't Have To Go
TTITLE5=Country Boy
TTITLE6=I'm A King Bee
TTITLE7=Trouble No More
TTITLE8=County Jail
TTITLE9=Baby Please Don't Go [-]
TTITLE10=Hoochie Coochie Man
EXTD=YEAR: 2012
EXTT0=
EXTT1=
EXTT2=
EXTT3=
EXTT4=
EXTT5=
EXTT6=
EXTT7=
EXTT8=
EXTT9=
EXTT10=
PLAYORDER=
